<?xml version="1.0" encoding="UTF-8" standalone="no"?>
<!-- Created with Inkscape (http://www.inkscape.org/) -->

<svg
   width="210mm"
   height="297mm"
   viewBox="0 0 210 297"
   version="1.1"
   id="svg5"
   inkscape:version="1.2.1 (9c6d41e410, 2022-07-14)"
   sodipodi:docname="vitreplexISoufiani_Younousse.svg"
   xml:space="preserve"
   xmlns:inkscape="http://www.inkscape.org/namespaces/inkscape"
   xmlns:sodipodi="http://sodipodi.sourceforge.net/DTD/sodipodi-0.dtd"
   xmlns="http://www.w3.org/2000/svg"
   xmlns:svg="http://www.w3.org/2000/svg"><sodipodi:namedview
     id="namedview7"
     pagecolor="#ffffff"
     bordercolor="#000000"
     borderopacity="0.25"
     inkscape:showpageshadow="2"
     inkscape:pageopacity="0.0"
     inkscape:pagecheckerboard="0"
     inkscape:deskcolor="#d1d1d1"
     inkscape:document-units="mm"
     showgrid="true"
     inkscape:zoom="2.8284272"
     inkscape:cx="368.40262"
     inkscape:cy="422.31951"
     inkscape:window-width="1920"
     inkscape:window-height="991"
     inkscape:window-x="-9"
     inkscape:window-y="-9"
     inkscape:window-maximized="1"
     inkscape:current-layer="layer1"><inkscape:grid
       type="xygrid"
       id="grid2624" /></sodipodi:namedview><defs
     id="defs2"><rect
       x="277.5"
       y="361.5"
       width="153"
       height="140"
       id="rect3464" /></defs><g
     inkscape:label="Calque 1"
     inkscape:groupmode="layer"
     id="layer1"><g
       id="g303"
       style="stroke-width:0.01;stroke-dasharray:none"><rect
         style="fill:#ffffff;fill-opacity:1;stroke:#0000ff;stroke-width:0.01;stroke-dasharray:none;stroke-opacity:1"
         id="rect234"
         width="61.891129"
         height="75.79113"
         x="57.722126"
         y="74.218437" /></g><path
       id="path2510-2-3"
       style="fill:#ffffff;fill-opacity:1;stroke:#ff0000;stroke-width:0.01;stroke-dasharray:none;stroke-opacity:1"
       d="M 110.64648 81.10306 A 1.5475 1.5496497 0 0 0 109.09928 82.652836 A 1.5475 1.5496497 0 0 0 109.10962 82.823885 L 109.10962 137.49755 A 1.5475 1.5496497 0 0 0 109.10652 137.58437 A 1.5475 1.5496497 0 0 0 110.65423 139.13414 A 1.5475 1.5496497 0 0 0 112.20142 137.58437 A 1.5475 1.5496497 0 0 0 112.2009 137.55853 L 112.20452 137.55853 L 112.20452 82.508659 L 112.18747 82.508659 A 1.5475 1.5496497 0 0 0 110.64648 81.10306 z " /><path
       id="path2510-2"
       style="fill:#ffffff;fill-opacity:1;stroke:#ff0000;stroke-width:0.01;stroke-dasharray:none;stroke-opacity:1"
       d="M 66.404215 81.226567 A 1.5475 1.5496497 0 0 0 64.873043 82.55 L 64.841003 82.55 L 64.841003 137.60039 L 64.844104 137.60039 A 1.5475 1.5496497 0 0 0 64.842037 137.6624 A 1.5475 1.5496497 0 0 0 66.389746 139.21217 A 1.5475 1.5496497 0 0 0 67.936938 137.6624 A 1.5475 1.5496497 0 0 0 67.935388 137.60039 L 67.935905 137.60039 L 67.935905 82.993384 A 1.5475 1.5496497 0 0 0 67.951408 82.776343 A 1.5475 1.5496497 0 0 0 67.935905 82.559302 L 67.935905 82.55 L 67.934355 82.55 A 1.5475 1.5496497 0 0 0 66.404215 81.226567 z " /><text
       xml:space="preserve"
       transform="matrix(0,0.23429228,-0.23396726,0,176.39497,28.650429)"
       id="text3462"
       style="font-size:8px;font-family:sans-serif;-inkscape-font-specification:'sans-serif, Normal';text-align:center;white-space:pre;shape-inside:url(#rect3464);shape-padding:2;display:inline;fill:#ffffff;fill-opacity:1;stroke:#000000;stroke-width:0.854227;stroke-dasharray:none;stroke-opacity:1"><tspan
         x="280.58402"
         y="385.337"
         id="tspan2093"><tspan
           style="font-size:24px"
           id="tspan2091">POLYSNAKES</tspan></tspan></text><path
       style="fill:#000000;stroke-width:0.01;stroke-dasharray:none"
       d="m 82.29529,132.01774 c -1.230087,-0.83496 -2.040368,-3.03224 -3.345528,-9.07239 -0.641778,-2.97004 -1.304214,-5.79413 -1.472087,-6.27576 -0.16786,-0.48164 -0.412326,-2.12355 -0.543252,-3.64871 -0.169147,-1.97042 -0.421559,-3.1677 -0.87212,-4.13669 -0.348761,-0.75002 -0.570021,-1.435 -0.491701,-1.52219 0.307169,-0.34192 1.088613,0.44507 1.248979,1.25783 0.09315,0.47189 0.350993,1.02583 0.573074,1.231 0.690001,0.63745 0.903808,1.72278 1.141987,5.79712 0.258659,4.4245 1.575477,10.49821 2.766616,12.76074 0.769087,1.46085 1.020965,1.54252 1.380233,0.44756 l 0.263372,-0.80271 0.02069,0.91293 c 0.01096,0.50211 0.197697,1.07643 0.414038,1.27629 0.336157,0.31056 0.39505,0.22029 0.405161,-0.62103 0.0068,-0.54142 0.170147,-1.37845 0.363665,-1.86008 l 0.351843,-0.87569 -8.08e-4,1.20584 c -4.52e-4,0.66321 0.127268,1.45134 0.283907,1.75138 0.255043,0.48865 0.285565,0.46183 0.292702,-0.25719 0.0082,-0.87482 0.441507,-1.10591 0.579322,-0.30931 0.07219,0.41739 0.456357,0.49887 2.492683,0.52877 2.213721,0.0326 2.421569,-0.0133 2.584524,-0.56637 0.157886,-0.53617 0.198122,-0.50629 0.369105,0.27394 l 0.191915,0.87569 0.304101,-0.82171 c 0.167256,-0.45195 0.312401,-1.17439 0.322539,-1.60544 0.01644,-0.70035 0.04247,-0.72161 0.243781,-0.19991 0.123981,0.32108 0.233659,1.07224 0.243797,1.66925 0.02534,1.49428 0.793142,1.20489 0.832994,-0.31397 l 0.02794,-1.06339 0.284948,0.80271 c 0.36883,1.03903 0.600282,1.01181 1.240225,-0.14593 1.354272,-2.45008 2.678619,-8.65645 3.078997,-14.42917 0.196561,-2.83386 0.319129,-3.41308 0.929887,-4.39413 0.3869,-0.6215 0.703495,-1.34819 0.703495,-1.61486 0,-0.53798 0.939486,-1.23047 1.151426,-0.84872 0.074,0.13312 -0.14487,0.85608 -0.48618,1.60656 -0.406636,0.89414 -0.681226,2.14421 -0.796541,3.62636 -0.0968,1.24402 -0.51683,3.64107 -0.933479,5.32676 -0.416636,1.68571 -1.118855,4.77251 -1.560495,6.85958 -0.95007,4.48971 -1.820162,6.47033 -3.205575,7.29696 -0.966441,0.57664 -0.992058,0.57697 -2.227871,0.0285 -1.912786,-0.84887 -4.381618,-0.92859 -6.052525,-0.19544 -1.697978,0.74501 -2.060685,0.75028 -3.099747,0.0451 z m -0.944577,-21.21672 c -1.120738,-2.78517 -2.676611,-10.23249 -2.547782,-12.195136 0.02233,-0.33971 -0.04412,-0.913204 -0.147542,-1.274426 -0.382311,-1.335055 -0.594501,-0.585593 -0.557883,1.970466 0.02069,1.444976 0.01096,2.627146 -0.02123,2.627056 -0.115349,-3.2e-4 -0.942001,-1.90665 -1.138397,-2.625336 -0.151872,-0.55577 -0.205341,-0.3555 -0.222465,0.833166 l -0.02261,1.56479 -0.4847,-0.66632 -0.484699,-0.66631 -0.178216,0.79041 c -0.102198,0.45319 -0.0068,1.43071 0.222164,2.29119 0.3585,1.34382 0.358637,1.57168 0.0013,2.17874 -0.531443,0.90285 -0.60194,0.86038 -0.571267,-0.3442 0.03576,-1.40445 -0.514757,-1.97663 -1.052693,-1.09409 -0.676205,1.10939 -0.985346,0.77792 -1.089572,-1.16824 -0.217272,-4.057416 -0.175997,-4.813566 0.294333,-5.391929 0.562842,-0.692106 0.588487,-0.993192 0.06548,-0.769821 -0.652038,0.278525 -0.474124,-1.140505 0.301881,-2.407801 0.382366,-0.62444 0.897835,-1.636335 1.145493,-2.248656 0.345802,-0.854953 0.489276,-1.000248 0.618256,-0.6261 0.09315,0.27032 -0.141954,1.255909 -0.528209,2.213986 -0.382872,0.949729 -0.610284,1.822357 -0.505345,1.939176 0.252248,0.280788 0.934604,-0.776331 0.934604,-1.447904 0,-0.290401 0.228863,-0.782765 0.508577,-1.094141 0.503304,-0.560256 0.502756,-0.581496 -0.05219,-2.043531 l -0.560719,-1.47739 0.563363,-1.290816 c 0.396461,-0.908384 0.519058,-1.594841 0.413778,-2.316991 -0.162654,-1.115806 0.425861,-2.265975 1.588917,-3.105294 0.33369,-0.240816 0.933986,-0.693521 1.333955,-1.006013 0.723441,-0.565193 0.735647,-0.564812 2.333537,0.07303 0.883449,0.352661 1.930786,0.641174 2.327399,0.641141 0.60783,-4.9e-5 0.723714,0.126042 0.737728,0.802656 0.01603,0.771592 0.02576,0.777253 0.253769,0.145954 0.194778,-0.539399 0.440164,-0.656765 1.373164,-0.656765 0.624804,0 1.280542,0.160897 1.45721,0.357559 0.253467,0.282151 0.429697,0.282151 0.835557,0 0.282894,-0.196656 0.991743,-0.357559 1.575245,-0.357559 0.855105,0 1.106888,0.127388 1.298049,0.656765 0.229822,0.636484 0.322567,0.546457 0.375886,-0.36487 0.01411,-0.240814 0.320607,-0.476397 0.681163,-0.523518 0.360556,-0.04712 1.394166,-0.367393 2.296905,-0.711714 l 1.641357,-0.626041 0.718646,0.641329 c 0.395254,0.352731 0.975745,0.764706 1.289952,0.915501 0.314228,0.150791 0.862287,0.750822 1.217912,1.333396 0.503576,0.824952 0.616786,1.306698 0.511766,2.178138 -0.0916,0.760689 10e-4,1.335005 0.28988,1.793875 0.57248,0.909803 0.53439,1.931314 -0.12288,3.296394 -0.462196,0.959954 -0.488726,1.173914 -0.17009,1.372405 0.20761,0.129332 0.58177,0.830642 0.83147,1.558464 0.2497,0.727821 0.56224,1.323311 0.69453,1.323311 0.38148,0 0.28268,-0.660261 -0.28389,-1.897326 -0.28845,-0.62979 -0.51482,-1.5442 -0.50306,-2.032019 l 0.0213,-0.886945 0.36364,0.923938 c 0.2,0.508164 0.72138,1.55187 1.1586,2.319343 0.86285,1.514522 1.07766,2.923799 0.40165,2.635036 -0.531,-0.22682 -0.49587,-0.0252 0.17031,0.977834 0.50676,0.762997 0.54229,1.049017 0.35204,2.834173 -0.1163,1.09204 -0.2048,2.47811 -0.1965,3.08014 0.0176,1.27405 -0.0766,1.31998 -0.91275,0.4455 -0.52842,-0.5526 -0.65886,-0.58515 -0.87722,-0.21892 -0.14108,0.2366 -0.21754,0.85709 -0.16996,1.37885 0.0924,1.01335 -0.0392,1.15855 -0.54236,0.59839 -0.39462,-0.43926 -0.40096,-1.45057 -0.0181,-2.87325 0.16313,-0.60611 0.21319,-1.47193 0.11123,-1.92403 l -0.18534,-0.82199 -0.519286,0.72258 -0.5193,0.72256 0.1643,-1.2106 c 0.21336,-1.572106 -0.230795,-1.872106 -0.621655,-0.41989 -0.1663,0.61787 -0.463986,1.27272 -0.661524,1.45521 -0.300358,0.27748 -0.32158,0.10789 -0.129593,-1.0357 0.126448,-0.753566 0.130287,-1.771536 0.0084,-2.267476 -0.121517,-0.494987 -0.170859,-1.06417 -0.109465,-1.26485 0.06142,-0.200678 -0.01094,-0.364869 -0.160669,-0.364869 -0.281879,0 -0.318382,0.201776 -0.803728,4.441025 -0.386407,3.37522 -1.376424,7.6441 -2.248833,9.69692 -0.38842,0.91396 -0.759689,1.60219 -0.825049,1.52943 -0.06535,-0.0728 0.05562,-0.9021 0.268879,-1.84298 0.667342,-2.94438 0.980456,-5.98003 0.933563,-9.05093 -0.02493,-1.628966 0.03,-3.097296 0.122062,-3.262956 0.0922,-0.166148 -0.09904,-0.34326 -0.426669,-0.39503 -0.684342,-0.10814 -0.947563,-1.194976 -0.450795,-1.861287 0.375872,-0.504143 0.225685,-0.529803 -0.612543,-0.104667 -0.343883,0.174414 -0.74988,0.66699 -0.902218,1.094612 l -0.277003,0.777493 -0.02794,-0.88685 c -0.03534,-1.121968 -1.960761,-3.013296 -3.317143,-3.258314 -1.354835,-0.244737 -1.292953,-0.516823 0.133021,-0.585033 1.030008,-0.04927 1.358341,0.0669 1.856152,0.656765 0.332636,0.394144 0.849736,0.71082 1.149083,0.703724 0.411819,-0.0098 0.304963,-0.153551 -0.43904,-0.590766 -0.772539,-0.453992 -0.983333,-0.750162 -0.983333,-1.381631 0,-0.885428 -0.645846,-2.101249 -1.116203,-2.101249 -0.216657,0 -0.21252,0.09714 0.01493,0.350274 0.442081,0.49211 0.392079,1.678258 -0.07931,1.879589 -0.216657,0.09255 -0.697357,0.08349 -1.068229,-0.02013 -0.584446,-0.163291 -0.668341,-0.332803 -0.629558,-1.272039 0.07535,-1.825846 -0.08247,-2.053518 -0.24548,-0.353906 L 87.836951,92.44219 H 86.91917 c -0.758675,0 -0.93263,-0.116651 -1.003471,-0.672834 -0.04712,-0.370057 0.05576,-0.862632 0.228781,-1.094611 0.203615,-0.273109 0.216164,-0.421777 0.03562,-0.421777 -0.387379,0 -0.659053,0.53361 -0.965358,1.896144 -0.204396,0.909182 -0.464617,1.276222 -1.180002,1.664384 -0.594953,0.322813 -0.747551,0.50291 -0.433821,0.511999 0.26618,0.0077 0.856188,-0.281525 1.31112,-0.642747 0.529237,-0.42023 1.222278,-0.661785 1.924279,-0.6707 1.321859,-0.01679 1.261143,0.301632 -0.107952,0.566328 -1.357889,0.262524 -3.214397,2.149864 -3.228288,3.281916 l -0.01096,0.83603 -0.354404,-0.906273 c -0.194916,-0.498449 -0.59368,-0.975927 -0.886135,-1.061059 -0.476617,-0.138742 -0.516552,-0.05065 -0.385269,0.849932 0.120144,0.824207 0.05589,1.031091 -0.357762,1.151499 -0.447958,0.130398 -0.512291,0.468003 -0.576528,3.025129 -0.07713,3.06901 0.267537,6.66429 0.905548,9.4469 0.545141,2.37756 0.335211,2.63669 -0.484919,0.59856 z m 0.54006,-18.617909 c 0.07849,-0.740891 -0.313718,-1.638241 -0.715988,-1.638241 -0.214314,0 -0.280661,1.079377 -0.122336,1.991036 0.155955,0.898186 0.731509,0.65598 0.838351,-0.352795 z m 13.30582,-0.07196 c 0.0096,-0.474809 0.104795,-1.021461 0.212136,-1.214785 0.119597,-0.21533 0.04041,-0.3515 -0.204423,-0.3515 -0.559801,0 -1.018459,1.08278 -0.823995,1.94525 0.218698,0.970002 0.794994,0.702452 0.816282,-0.378965 z M 78.23561,91.820255 c 0.335773,-0.261797 0.775649,-0.915984 0.977496,-1.45375 0.488139,-1.300478 1.223347,-1.761035 3.139283,-1.966553 1.789135,-0.191914 2.469436,-0.416587 2.469436,-0.815544 0,-0.151141 -0.236261,-0.13018 -0.534348,0.04741 -0.293894,0.175085 -0.736399,0.24058 -0.983346,0.145538 -0.450602,-0.173416 -1.741076,-2.167226 -1.54442,-2.386146 0.05767,-0.06424 0.443314,0.02641 0.856899,0.201447 0.902192,0.381834 0.834009,0.296981 -0.955851,-1.189559 -0.765292,-0.635597 -1.641974,-1.15563 -1.948198,-1.15563 -0.878669,0 -2.323152,1.850759 -2.329947,2.985268 -0.0027,0.525432 0.08959,1.186689 0.205944,1.469461 0.161859,0.393183 0.116993,0.47369 -0.190764,0.342231 -0.899069,-0.384047 -1.376494,2.878707 -0.55502,3.79313 0.514798,0.573061 0.637626,0.571534 1.392836,-0.0173 z m 21.430004,-0.488266 c 0.340786,-0.795528 0.360606,-1.181207 0.11317,-2.204055 -0.24579,-1.016041 -0.388785,-1.208395 -0.792375,-1.065809 -0.444209,0.156942 -0.464631,0.09196 -0.2085,-0.663432 0.38273,-1.128666 0.10496,-2.173198 -0.86507,-3.252989 -1.029434,-1.145923 -1.769601,-1.133763 -3.069212,0.05043 -0.57261,0.521765 -1.262281,1.109591 -1.532584,1.306285 -0.41108,0.299135 -0.367584,0.309734 0.266016,0.06481 0.416613,-0.161046 0.808951,-0.235515 0.871873,-0.165484 0.15679,0.174538 -1.254048,2.516067 -1.516008,2.516067 -0.115624,0 -0.530566,-0.135533 -0.921972,-0.301194 -0.610968,-0.258574 -0.666753,-0.240935 -0.394175,0.124646 0.185668,0.249035 1.045638,0.507902 2.071261,0.623483 2.099988,0.236655 2.756492,0.648989 3.453,2.168743 0.896357,1.955846 1.893631,2.271277 2.524556,0.798503 z M 89.017376,88.467551 c 0,-0.34319 -1.500884,-0.332587 -1.692184,0.01196 -0.176448,0.317824 0.577062,0.542683 1.233294,0.368031 0.252398,-0.06717 0.45889,-0.238165 0.45889,-0.379984 z"
       id="path280" /><text
       xml:space="preserve"
       style="font-size:6.35px;font-family:sans-serif;-inkscape-font-specification:'sans-serif, Normal';text-align:center;text-anchor:middle;fill:#ffffff;fill-opacity:1;stroke:#000000;stroke-width:0.2;stroke-dasharray:none;stroke-opacity:1"
       x="88.867111"
       y="144.99371"
       id="text440"><tspan
         sodipodi:role="line"
         id="tspan438"
         style="fill:#ffffff;fill-opacity:1;stroke:#000000;stroke-width:0.2;stroke-dasharray:none;stroke-opacity:1"
         x="88.867111"
         y="144.99371">2022-2023</tspan></text></g></svg>
